# xmcd
#
# Track frame offsets: 
#        150
#        20262
#        35741
#        58308
#        75320
#        89390
#        110028
#        128244
#        140430
#        157880
#        179331
#        200682
#        223730
#        242046
#        253611
#        265352
#        277993
#        291866
#        316112
#        330791
#
# Disc length: 4584 seconds
#
# Revision: 2
# Processed by: cddbd v1.5.2PL0 Copyright (c) Steve Scherf et al.
# Submitted via: ExactAudioCopy v0.99pb5
#
DISCID=2211e614
DTITLE=Various Artist - I love Jazz [CD1 Jazz divas)
DYEAR=2008
DGENRE=Jazz
TTITLE0=Diana Krall - This can't be love
TTITLE1=Stacey Kent - Too darn hot
TTITLE2=Norah Jones and Joel Harrisson - I walk the line
TTITLE3=Sara Lazarus - Morning
TTITLE4=Anne Ducros - Close your eyes
TTITLE5=Jacqui Dankworth - Blue moon
TTITLE6=Terez Montcalm - Sweet dreams
TTITLE7=Ida Sand - Bang Bang
TTITLE8=Viktoria Tolstoy - Upside out
TTITLE9=Karen Aoki feat. Native - Smooth operator
TTITLE10=Alice Russel feat. Natureboy - Sweet is the air
TTITLE11=Ranee Lee - Fine and Mellow
TTITLE12=Elisabeth Kontomanou - Fever
TTITLE13=Nina Simone - Work song
TTITLE14=Dinah Washington - New blow top blues
TTITLE15=Billie Holiday - Them there eyes
TTITLE16=Ella Fitzgerald - Smooth sailin'
TTITLE17=Abbey Lincoln - Straight ahead
TTITLE18=Sarah Vaughan - Summertime
TTITLE19=Julie London - Cry me a river
EXTD=YEAR: 2008
EXTT0=
EXTT1=
EXTT2=
EXTT3=
EXTT4=
EXTT5=
EXTT6=
EXTT7=
EXTT8=
EXTT9=
EXTT10=
EXTT11=
EXTT12=
EXTT13=
EXTT14=
EXTT15=
EXTT16=
EXTT17=
EXTT18=
EXTT19=
PLAYORDER=
